# xmcd
#
# Track frame offsets: 
#        150
#        24825
#        54075
#        82725
#        110550
#        132600
#        157800
#        176025
#        194550
#        215775
#        238275
#        266250
#
# Disc length: 3798 seconds
#
# Revision: 1
# Processed by: cddbd v1.5.2PL0 Copyright (c) Steve Scherf et al.
# Submitted via: ExactAudioCopy v1.0b3
#
DISCID=a00ed40c
DTITLE=Jurek Jagoda Trio - Songs without words
DYEAR=2009
DGENRE=Jazz
TTITLE0=running man
TTITLE1=two sides of something
TTITLE2=if only i could tell you
TTITLE3=short story
TTITLE4=loraine
TTITLE5=waiting
TTITLE6=three for all
TTITLE7=moon and sun
TTITLE8=are you nervous
TTITLE9=loving twice
TTITLE10=rememberance
TTITLE11=before i tell you good night
EXTD=YEAR: 2009
EXTT0=
EXTT1=
EXTT2=
EXTT3=
EXTT4=
EXTT5=
EXTT6=
EXTT7=
EXTT8=
EXTT9=
EXTT10=
EXTT11=
PLAYORDER=
